<?xml version="1.0" encoding="UTF-8"?>
<svg id="Layer_1" data-name="Layer 1" xmlns="http://www.w3.org/2000/svg" viewBox="0 0 292.66 323.06">
  <defs>
    <style>
      .cls-1 {
        fill: #a3a3a3;
      }
    </style>
  </defs>
  <g id="Layer_1-2" data-name="Layer 1-2">
    <path class="cls-1" d="M154.1,157.6c2.48-2.84,8.8-5.08,12.29-7.02,7.66-4.24,17.57-10.91,25.36-14.1,3.34-1.37,7.04-1.51,8.88,2.1,1.42,2.8.69,5.15.87,8.08,1.8,30.58.4,62.83,2.44,93.62.19,2.89.26,4.11,3.44,5.16,4.01,1.33,8.43-1.42,11.98-3.27,4.45-2.34,8.63-4.82,12.94-7.37,3.81-2.26,7.49-4.25,8.58-8.91l.08-111.79c.43-5.02,3.15-7.13,7.06-9.62,6.66-4.24,13.94-7.18,20.89-10.85,4.5-2.38,9.61-6.59,14.45-7.92,3.9-1.07,7.11-1,7.6,3.63.76,7.25,1.04,15.8,1.29,23.12,1.02,29.52-.15,59.18-.44,88.69-.13,13.03,1.13,28.45.03,41.12-1.12,12.93-17.65,17.85-27.55,23.31-31.77,17.53-63.53,35.1-95.6,52.07-5.1,2.7-12.53,9.26-17.15,1.83-1.55-2.49-.48-3.19-.46-5.61.44-43.54-1.57-87.07-.44-130.63.15-6.06.33-12.58.88-18.64.27-2.94.61-4.75,2.57-7h0Z"/>
    <path class="cls-1" d="M5.32,85.1c.85-.17,1.64-.18,2.44.23,11.79,5.95,23.56,11.82,35.14,18.15,3.74,2.04,8.73,3.25,11.02,7.29,1.62,2.86.95,5.58,1.14,8.62,2.04,32.6-.68,66.5.39,99.29.16,1.72,1.11,4.97,2.47,6.07,2.05,1.67,7.66,4.51,10.29,5.98,20.07,11.29,41.45,20.37,61.02,32.55,2.22,1.38,9.09,5.45,10.46,7.04,1.56,1.81,2.27,7.71,2.43,10.18.54,8.45-.16,17.2-.42,25.61-.11,3.49.56,8.99-.08,12.13-.39,1.92-3.08,4.45-5.02,4.74-5.74.87-14.26-6.03-19.28-8.74-35.9-19.38-71.8-38.86-107.69-58.29-5.71-3.6-8.67-8.56-9.1-15.31-1.25-19.24.09-41.1.04-60.65-.07-26.95-.58-53.97.4-80.92.16-4.46-1.7-12.78,4.35-13.97h0Z"/>
    <path class="cls-1" d="M218.9,42.81c7.1-1.11,10.86,2.82,16.51,5.67,11.68,5.91,26.14,12.54,37.01,19.54,3.61,2.32,5.3,5.95,2.66,9.82-1.99,2.92-8.73,5.34-12,7.12-9.8,5.33-19.48,11.09-29.42,16.15-7.55,3.84-12.14,6.28-20.63,2.31l-43.38-23.75c-3.66-2.77-4.37-7.6-.65-10.68,11.19-6.29,22.31-12.88,33.73-18.75,3.88-2,12.29-6.81,16.18-7.42h0Z"/>
    <path class="cls-1" d="M68.79,42.81c3.88-.61,6.98.39,10.42,1.99,15,7,29.01,16.39,43.93,23.6,5.02,4.28,3.8,8.97-1.49,12.2-3.95,2.42-8.98,4.5-13.16,6.78-9.35,5.11-19.87,11.87-29.41,16.15-5.44,2.44-9.74,2.42-15.22.13-14.43-6.04-29.25-17.24-43.76-23.77-4.21-2.29-4.86-7.71-1.23-10.92,12.03-6.66,23.92-13.72,36.17-19.97,3.41-1.74,10.27-5.65,13.73-6.2h0Z"/>
    <path class="cls-1" d="M141.98,85.17c2.36-.04,5,1.14,7.2,1.94l44.74,24.01c9.16,9.08-2.91,12.6-9.36,16.13-10.88,5.97-23.61,14.12-34.7,19-5.36,2.36-9.82,2.42-15.22.13-14.38-6.1-29.01-17.15-43.51-23.61-3.95-2.31-5.16-6.85-2.07-10.46,11.72-7.02,23.75-13.95,35.95-20.19,4.19-2.14,12.53-6.89,16.96-6.95h0Z"/>
    <path class="cls-1" d="M140.39.1c3.65-.48,6.8.86,10.01,2.39,14.69,7.01,28.52,15.99,43.12,23.2,5.21,3.72,4.58,8.97-.68,12.2-2.38,1.46-5.36,2.56-7.87,3.93-11.11,6.05-23.38,13.82-34.69,19.01-4.89,2.24-9.85,2.63-14.94.67l-44.61-24.14c-6.05-5.37-3.64-9.43,2.31-13.02,10-6.04,21.95-12.29,32.4-17.64,3.73-1.9,11.1-6.09,14.96-6.6h0Z"/>
  </g>
</svg>